# File created by Blade
# Date/Time:  Wed Apr 08 17:19:54 2015
# Frame Rate: 120.000 fps
#------------------------------------------------------
:FULLY-SPECIFIED
:DEGREES
1487
root 7.116673 36.622026 -0.074533 142.201789 -78.438699 -146.686847
Spine 13.037902 2.652782 -0.617086
Head 7.918343 7.827043 10.361745
LeftShoulder -8.949420 15.830304 18.005863
LeftArm 16.302589 -1.003782 -66.071215
LeftForeArm 19.541245 -0.000000 25.053180
LeftHand -12.216734 0.000000 -14.300332
LeftHandThumb1 -26.253704 0.000000 33.147579
RightShoulder -29.385182 -44.368130 10.288811
RightArm 53.103113 7.503939 63.837630
RightForeArm 5.443192 -0.000000 14.789770
RightHand -3.239660 -0.000000 9.816089
RightHandThumb1 -24.326973 -0.000000 -32.862282
LeftUpLeg 10.135048 10.130522 3.207577
LeftLeg 6.775487 -0.000000 -0.000000
LeftFoot -12.683772 1.035611 -6.580637
LeftToeBase 8.301787 -0.000000 -0.000000
RightUpLeg -25.652403 1.789499 -9.614855
RightLeg 79.751904 -0.000000 -0.000000
RightFoot -13.093125 1.583038 18.153495
RightToeBase -3.632400 -0.000000 0.000000
1488
root 7.123681 36.619668 -0.103003 142.021782 -78.652874 -146.580072
Spine 13.041091 2.720618 -0.757202
Head 7.965057 7.803977 10.377276
LeftShoulder -8.950410 15.805383 18.173924
LeftArm 16.269446 -1.663822 -65.545031
LeftForeArm 19.587466 -0.000000 25.059180
LeftHand -12.156520 -0.000000 -14.407731
LeftHandThumb1 -26.253704 0.000000 33.147579
RightShoulder -29.368790 -44.291241 10.036596
RightArm 53.024337 8.369483 63.859140
RightForeArm 5.372273 -0.000000 14.750257
RightHand -3.326542 -0.000000 9.622263
RightHandThumb1 -24.326973 -0.000000 -32.862282
LeftUpLeg 10.209143 9.985170 3.160509
LeftLeg 6.712677 -0.000000 -0.000000
LeftFoot -12.635943 1.008465 -6.633502
LeftToeBase 8.299282 -0.000000 -0.000000
RightUpLeg -24.544254 2.210971 -9.868539
RightLeg 77.221772 -0.000000 -0.000000
RightFoot -12.967860 2.081226 18.744568
RightToeBase -3.834339 -0.000000 0.000000
1489
root 7.127822 36.616165 -0.129697 141.922423 -78.870861 -146.541837
Spine 13.019930 2.766502 -0.901534
Head 8.021630 7.782282 10.359210
LeftShoulder -8.963300 15.802172 18.302904
LeftArm 16.237043 -2.353545 -64.988532
LeftForeArm 19.604211 -0.000000 25.068163
LeftHand -12.112463 0.000000 -14.552349
LeftHandThumb1 -26.253704 0.000000 33.147579
RightShoulder -29.387011 -44.255157 9.827262
RightArm 52.998858 9.241845 63.816140
RightForeArm 5.253404 -0.000000 14.714998
RightHand -3.282156 0.000000 9.460029
RightHandThumb1 -24.326973 -0.000000 -32.862282
LeftUpLeg 10.288233 9.905170 3.109887
LeftLeg 6.629386 -0.000000 -0.000000
LeftFoot -12.581558 0.916175 -6.650943
LeftToeBase 8.387412 -0.000000 -0.000000
RightUpLeg -23.427784 2.568358 -10.115079
RightLeg 74.696157 -0.000000 -0.000000
RightFoot -12.910665 2.401450 19.356053
RightToeBase -4.010670 -0.000000 0.000000
1490
root 7.131807 36.613310 -0.158317 141.719905 -79.103543 -146.381967
Spine 12.974927 2.787894 -1.030440
Head 8.084882 7.796090 10.332022
LeftShoulder -8.935131 15.728975 18.438510
LeftArm 16.123027 -3.064105 -64.437994
LeftForeArm 19.705074 -0.000000 25.073156
LeftHand -12.198296 0.000000 -14.409680
LeftHandThumb1 -26.253704 0.000000 33.147579
RightShoulder -29.334224 -44.172540 9.511319
RightArm 52.867529 10.065425 63.813979
RightForeArm 5.335832 -0.000000 14.721555
RightHand -3.369296 -0.000000 9.131255
RightHandThumb1 -24.326973 -0.000000 -32.862282
LeftUpLeg 10.348730 9.804167 3.076891
LeftLeg 6.551363 -0.000000 -0.000000
LeftFoot -12.525345 0.774366 -6.702923
LeftToeBase 8.487351 -0.000000 -0.000000
RightUpLeg -22.307402 2.792911 -10.315686
RightLeg 72.164560 -0.000000 -0.000000
RightFoot -12.943498 2.372974 19.625206
RightToeBase -3.869296 -0.000000 0.000000
1491
root 7.137208 36.610567 -0.187371 141.589232 -79.313039 -146.264761
Spine 12.899412 2.809165 -1.151255
Head 8.142139 7.820222 10.283018
LeftShoulder -8.965591 15.697116 18.554918
LeftArm 16.116661 -3.831333 -63.921783
LeftForeArm 19.708438 -0.000000 24.993750
LeftHand -12.090134 -0.000000 -14.618676
LeftHandThumb1 -26.253704 0.000000 33.147579
RightShoulder -29.273702 -44.118077 9.199734
RightArm 52.779317 10.961233 63.868981
RightForeArm 5.252374 -0.000000 14.716714
RightHand -3.445366 0.000000 9.199589
RightHandThumb1 -24.326973 -0.000000 -32.862282
LeftUpLeg 10.368660 9.795071 3.065525
LeftLeg 6.504162 -0.000000 -0.000000
LeftFoot -12.477833 0.580458 -6.752563
LeftToeBase 8.545197 -0.000000 -0.000000
RightUpLeg -21.214133 2.976515 -10.487953
RightLeg 69.635441 -0.000000 -0.000000
RightFoot -13.099527 2.131364 19.707999
RightToeBase -3.504638 -0.000000 0.000000
